<svg width="16" height="16" viewBox="0 0 16 16" fill="none" xmlns="http://www.w3.org/2000/svg">
<path d="M4.58397 5.72266C4.73715 5.4929 5.04759 5.43081 5.27735 5.58398L8 7.39908L10.7227 5.58398C10.9524 5.43081 11.2628 5.4929 11.416 5.72266C11.5692 5.95242 11.5071 6.26286 11.2773 6.41603L8.5547 8.23113C8.53675 8.2431 8.5185 8.25443 8.5 8.26512V11.5C8.5 11.7762 8.27614 12 8 12C7.72386 12 7.5 11.7762 7.5 11.5V8.26512C7.4815 8.25443 7.46325 8.2431 7.4453 8.23113L4.72265 6.41603C4.49289 6.26286 4.4308 5.95242 4.58397 5.72266Z" fill="#9B9B9B"/>
<path fill-rule="evenodd" clip-rule="evenodd" d="M14.0902 8.00001L14.076 6.21614C14.0675 5.1529 13.4969 4.17356 12.5761 3.64192L9.50016 1.86604C8.57195 1.33014 7.42836 1.33014 6.50016 1.86604L3.42424 3.64192C2.50341 4.17356 1.93279 5.1529 1.92434 6.21615L1.91016 8.00001L1.92434 9.78387C1.93279 10.8471 2.50341 11.8265 3.42424 12.3581L6.50016 14.134C7.42836 14.6699 8.57195 14.6699 9.50016 14.134L12.5761 12.3581C13.4969 11.8265 14.0675 10.8471 14.076 9.78387L14.0902 8.00001ZM13.0901 8.00001L13.076 6.22409C13.0704 5.51526 12.69 4.86237 12.0761 4.50794L9.00016 2.73206C8.38135 2.37479 7.61896 2.37479 7.00016 2.73206L3.92424 4.50794C3.31036 4.86237 2.92994 5.51526 2.92431 6.22409L2.91019 8.00001L2.92431 9.77593C2.92994 10.4848 3.31036 11.1377 3.92424 11.4921L7.00016 13.268C7.61896 13.6252 8.38135 13.6252 9.00016 13.268L12.0761 11.4921C12.69 11.1377 13.0704 10.4848 13.076 9.77592L13.0901 8.00001Z" fill="#9B9B9B"/>
</svg>
