<svg width="12" height="12" viewBox="0 0 12 12" fill="none" xmlns="http://www.w3.org/2000/svg">
<g clip-path="url(#clip0_50_2629)">
<path d="M8.70267 4.76516C8.84911 4.61872 8.84911 4.38128 8.70267 4.23484C8.55622 4.08839 8.31878 4.08839 8.17233 4.23484L5.25 7.15717L4.01516 5.92234C3.86872 5.77589 3.63128 5.77589 3.48484 5.92234C3.33839 6.06878 3.33839 6.30622 3.48484 6.45266L4.98484 7.95267C5.13128 8.09911 5.36872 8.09911 5.51516 7.95267L8.70267 4.76516Z" fill="#D5D5D5"/>
<path fill-rule="evenodd" clip-rule="evenodd" d="M0.75 5.625C0.75 2.93261 2.93261 0.75 5.625 0.75H6.375C9.06739 0.75 11.25 2.93261 11.25 5.625V6.375C11.25 9.06739 9.06739 11.25 6.375 11.25H5.625C2.93261 11.25 0.75 9.06739 0.75 6.375V5.625ZM5.625 1.5H6.375C8.65317 1.5 10.5 3.34683 10.5 5.625V6.375C10.5 8.65317 8.65317 10.5 6.375 10.5H5.625C3.34683 10.5 1.5 8.65317 1.5 6.375V5.625C1.5 3.34683 3.34683 1.5 5.625 1.5Z" fill="#D5D5D5"/>
</g>
<defs>
<clipPath id="clip0_50_2629">
<rect width="12" height="12" fill="white"/>
</clipPath>
</defs>
</svg>
