<svg width="12" height="12" viewBox="0 0 12 12" fill="none" xmlns="http://www.w3.org/2000/svg">
<g clip-path="url(#clip0_45_2465)">
<path d="M3.87867 3.87869C4.02512 3.73225 4.26256 3.73225 4.409 3.87869L5.99998 5.46967L7.59098 3.87866C7.73743 3.73222 7.97487 3.73222 8.12131 3.87866C8.26776 4.02511 8.26776 4.26255 8.12131 4.40899L6.53031 6L8.12131 7.59101C8.26776 7.73745 8.26776 7.97489 8.12131 8.12134C7.97487 8.26778 7.73743 8.26778 7.59098 8.12134L5.99998 6.53033L4.409 8.12131C4.26256 8.26775 4.02512 8.26775 3.87867 8.12131C3.73223 7.97486 3.73223 7.73742 3.87867 7.59097L5.46965 6L3.87867 4.40902C3.73223 4.26258 3.73223 4.02514 3.87867 3.87869Z" fill="#D5D5D5"/>
<path fill-rule="evenodd" clip-rule="evenodd" d="M5.625 0.75C2.93261 0.75 0.75 2.93261 0.75 5.625V6.375C0.75 9.06739 2.93261 11.25 5.625 11.25H6.375C9.06739 11.25 11.25 9.06739 11.25 6.375V5.625C11.25 2.93261 9.06739 0.75 6.375 0.75H5.625ZM6.375 1.5H5.625C3.34683 1.5 1.5 3.34683 1.5 5.625V6.375C1.5 8.65317 3.34683 10.5 5.625 10.5H6.375C8.65317 10.5 10.5 8.65317 10.5 6.375V5.625C10.5 3.34683 8.65317 1.5 6.375 1.5Z" fill="#D5D5D5"/>
</g>
<defs>
<clipPath id="clip0_45_2465">
<rect width="12" height="12" fill="white"/>
</clipPath>
</defs>
</svg>
