<svg width="16" height="17" viewBox="0 0 16 17" fill="none" xmlns="http://www.w3.org/2000/svg">
<path d="M13.3535 3.85355C13.5488 3.65829 13.5488 3.34171 13.3535 3.14645C13.1583 2.95118 12.8417 2.95118 12.6464 3.14645L7.99999 7.79289L3.35355 3.14646C3.15829 2.9512 2.84171 2.9512 2.64645 3.14646C2.45119 3.34172 2.45119 3.6583 2.64645 3.85357L7.29288 8.5L2.64645 13.1464C2.45118 13.3417 2.45118 13.6583 2.64645 13.8535C2.84171 14.0488 3.15829 14.0488 3.35355 13.8535L7.99999 9.20711L12.6464 13.8536C12.8417 14.0488 13.1583 14.0488 13.3535 13.8536C13.5488 13.6583 13.5488 13.3417 13.3535 13.1464L8.70709 8.5L13.3535 3.85355Z" fill="#D5D5D5"/>
</svg>
