<svg width="16" height="16" viewBox="0 0 16 16" fill="none" xmlns="http://www.w3.org/2000/svg">
<path d="M4.5 7.5C4.5 7.22386 4.72386 7 5 7H11C11.2761 7 11.5 7.22386 11.5 7.5C11.5 7.77614 11.2761 8 11 8H5C4.72386 8 4.5 7.77614 4.5 7.5Z" fill="#9B9B9B"/>
<path d="M5 9C4.72386 9 4.5 9.22386 4.5 9.5C4.5 9.77614 4.72386 10 5 10H11C11.2761 10 11.5 9.77614 11.5 9.5C11.5 9.22386 11.2761 9 11 9H5Z" fill="#9B9B9B"/>
<path d="M4.5 11.5C4.5 11.2239 4.72386 11 5 11H9C9.27614 11 9.5 11.2239 9.5 11.5C9.5 11.7761 9.27614 12 9 12H5C4.72386 12 4.5 11.7761 4.5 11.5Z" fill="#9B9B9B"/>
<path d="M5.5 3.5C4.94772 3.5 4.5 3.94772 4.5 4.5C4.5 5.05228 4.94772 5.5 5.5 5.5C6.05228 5.5 6.5 5.05228 6.5 4.5C6.5 3.94772 6.05228 3.5 5.5 3.5Z" fill="#9B9B9B"/>
<path fill-rule="evenodd" clip-rule="evenodd" d="M5 1C3.34315 1 2 2.34315 2 4V12C2 13.6569 3.34315 15 5 15H11C12.6569 15 14 13.6569 14 12V5.31971C14 4.47879 13.6471 3.67647 13.0272 3.10824L11.5875 1.78854C11.0342 1.28136 10.3109 1 9.56032 1H5ZM5 14H11C12.1046 14 13 13.1046 13 12V5.31971C13 4.75909 12.7647 4.22422 12.3514 3.8454L10.9118 2.52569C10.5429 2.18757 10.0607 2 9.56032 2H5C3.89543 2 3 2.89543 3 4V12C3 13.1046 3.89543 14 5 14Z" fill="#9B9B9B"/>
</svg>
