<svg width="12" height="2" viewBox="0 0 12 2" fill="none" xmlns="http://www.w3.org/2000/svg">
<path d="M2.33331 1C2.33331 1.73638 2.06969 2 1.33331 2C0.596933 2 0.333313 1.73638 0.333313 1C0.333313 0.26362 0.596933 0 1.33331 0C2.06969 0 2.33331 0.26362 2.33331 1Z" fill="#9B9B9B"/>
<path d="M6.99998 1C6.99998 1.73638 6.73636 2 5.99998 2C5.2636 2 4.99998 1.73638 4.99998 1C4.99998 0.26362 5.2636 0 5.99998 0C6.73636 0 6.99998 0.26362 6.99998 1Z" fill="#9B9B9B"/>
<path d="M11.6666 1C11.6666 1.73638 11.403 2 10.6666 2C9.93027 2 9.66665 1.73638 9.66665 1C9.66665 0.26362 9.93027 0 10.6666 0C11.403 0 11.6666 0.26362 11.6666 1Z" fill="#9B9B9B"/>
</svg>
