<svg width="24" height="24" viewBox="0 0 24 24" fill="none" xmlns="http://www.w3.org/2000/svg">
<path d="M16.1257 8.76952C16.4186 8.47663 16.4186 8.00176 16.1257 7.70886C15.8328 7.41597 15.358 7.41597 15.0651 7.70886L12.4134 10.3605C12.1205 10.6534 12.1205 11.1283 12.4134 11.4212C12.7063 11.7141 13.1812 11.7141 13.4741 11.4212L16.1257 8.76952Z" fill="#8ED09C"/>
<path fill-rule="evenodd" clip-rule="evenodd" d="M18.7774 5.05729C17.3129 3.59282 14.9385 3.59282 13.4741 5.05729L5.85901 12.6723C5.63795 12.8934 5.49148 13.178 5.44008 13.4864L4.80368 17.3048C4.63448 18.32 5.51464 19.2002 6.52987 19.031L10.3483 18.3946C10.6566 18.3432 10.9412 18.1967 11.1623 17.9756L18.7774 10.3606C20.2418 8.89612 20.2418 6.52175 18.7774 5.05729ZM14.5347 6.11795C15.4134 5.23927 16.838 5.23927 17.7167 6.11795C18.5954 6.99663 18.5954 8.42125 17.7167 9.29993L10.1017 16.915L6.28327 17.5514L6.91967 13.733L14.5347 6.11795Z" fill="#8ED09C"/>
</svg>
