<svg width="24" height="24" viewBox="0 0 24 24" fill="none" xmlns="http://www.w3.org/2000/svg">
<path fill-rule="evenodd" clip-rule="evenodd" d="M14.8903 11.9243C14.8903 13.5626 13.5957 14.8906 11.9987 14.8906C10.4018 14.8906 9.10723 13.5626 9.10723 11.9243C9.10723 10.286 10.4018 8.95793 11.9987 8.95793C13.5957 8.95793 14.8903 10.286 14.8903 11.9243ZM13.4445 11.9243C13.4445 12.7434 12.7972 13.4075 11.9987 13.4075C11.2003 13.4075 10.553 12.7434 10.553 11.9243C10.553 11.1051 11.2003 10.4411 11.9987 10.4411C12.7972 10.4411 13.4445 11.1051 13.4445 11.9243Z" fill="#D5D5D5"/>
<path fill-rule="evenodd" clip-rule="evenodd" d="M3.54254 14.9663C3.33826 14.7284 3.1024 14.499 2.86512 14.2683C2.19636 13.618 1.51632 12.9567 1.50028 12.0634C1.48308 11.1054 2.25661 10.3813 3.00539 9.68047C3.27454 9.42853 3.5405 9.17959 3.76538 8.92386C8.26194 3.81032 16.6213 4.0348 20.7785 9.59744C20.9659 9.84815 21.2036 10.0841 21.4429 10.3216C21.756 10.6325 22.072 10.9461 22.2816 11.2993C23.051 12.5958 21.6354 13.8729 20.3969 14.9904C20.147 15.2158 19.9044 15.4347 19.6883 15.646C15.2356 20 7.67125 19.7735 3.54254 14.9663ZM18.6908 14.5724C14.8194 18.358 8.20192 18.1478 4.62731 13.9858C4.38292 13.7012 4.11279 13.4381 3.8922 13.2235L3.87725 13.2089C3.64687 12.9848 3.46406 12.807 3.30456 12.6278C2.96941 12.2514 2.94682 12.0933 2.94579 12.036C2.94495 11.9891 2.95939 11.816 3.35462 11.388C3.53542 11.1923 3.74178 10.999 3.99486 10.7621L4.02412 10.7347C4.27183 10.5027 4.57219 10.2206 4.83888 9.91733C8.74114 5.47963 16.0338 5.6863 19.6312 10.4999C19.8901 10.8463 20.2159 11.1685 20.448 11.3982C20.4825 11.4323 20.5151 11.4645 20.5449 11.4943C20.825 11.7741 20.968 11.938 21.0467 12.0706C21.0482 12.0732 21.0495 12.0751 21.0506 12.0764C21.0301 12.1555 20.9492 12.3363 20.7085 12.6296C20.4759 12.9129 20.1688 13.2135 19.8026 13.5495C19.7 13.6437 19.5879 13.7449 19.4717 13.8497C19.2099 14.0861 18.9279 14.3406 18.6908 14.5724Z" fill="#D5D5D5"/>
</svg>
