<svg width="16" height="16" viewBox="0 0 16 16" fill="none" xmlns="http://www.w3.org/2000/svg">
<path fill-rule="evenodd" clip-rule="evenodd" d="M12.167 7.66699C10.9575 7.66699 9.94864 6.80811 9.717 5.66699H2.16699C1.89085 5.66699 1.66699 5.44313 1.66699 5.16699C1.66699 4.89085 1.89085 4.66699 2.16699 4.66699H9.717C9.94864 3.52587 10.9575 2.66699 12.167 2.66699C13.5477 2.66699 14.667 3.78628 14.667 5.16699C14.667 6.5477 13.5477 7.66699 12.167 7.66699ZM12.167 6.66699C11.3386 6.66699 10.667 5.99542 10.667 5.16699C10.667 4.33857 11.3386 3.66699 12.167 3.66699C12.9954 3.66699 13.667 4.33857 13.667 5.16699C13.667 5.99542 12.9954 6.66699 12.167 6.66699Z" fill="#9B9B9B"/>
<path fill-rule="evenodd" clip-rule="evenodd" d="M6.61698 10.667C6.38535 9.52587 5.37647 8.66699 4.16699 8.66699C2.78628 8.66699 1.66699 9.78628 1.66699 11.167C1.66699 12.5477 2.78628 13.667 4.16699 13.667C5.37647 13.667 6.38535 12.8081 6.61698 11.667H14.167C14.4431 11.667 14.667 11.4431 14.667 11.167C14.667 10.8909 14.4431 10.667 14.167 10.667H6.61698ZM4.16699 12.667C4.99542 12.667 5.66699 11.9954 5.66699 11.167C5.66699 10.3386 4.99542 9.66699 4.16699 9.66699C3.33857 9.66699 2.66699 10.3386 2.66699 11.167C2.66699 11.9954 3.33857 12.667 4.16699 12.667Z" fill="#9B9B9B"/>
</svg>
