<svg width="16" height="16" viewBox="0 0 16 16" fill="none" xmlns="http://www.w3.org/2000/svg">
<path fill-rule="evenodd" clip-rule="evenodd" d="M8 1C6.067 1 4.5 2.567 4.5 4.5V5C4.5 6.933 6.067 8.5 8 8.5C9.933 8.5 11.5 6.933 11.5 5V4.5C11.5 2.567 9.933 1 8 1ZM10.5 5V4.5C10.5 3.11929 9.38071 2 8 2C6.61929 2 5.5 3.11929 5.5 4.5V5C5.5 6.38071 6.61929 7.5 8 7.5C9.38071 7.5 10.5 6.38071 10.5 5Z" fill="#9B9B9B"/>
<path d="M10.9219 10.2147C10.7267 10.0194 10.4101 10.0194 10.2148 10.2147C10.0195 10.4099 10.0195 10.7265 10.2148 10.9218L10.8271 11.5341L10.2148 12.1464C10.0195 12.3417 10.0195 12.6583 10.2148 12.8536C10.4101 13.0488 10.7267 13.0488 10.9219 12.8536L11.5342 12.2412L12.1463 12.8533C12.3416 13.0486 12.6582 13.0486 12.8534 12.8533C13.0487 12.658 13.0487 12.3415 12.8534 12.1462L12.2413 11.5341L12.8534 10.922C13.0487 10.7268 13.0487 10.4102 12.8534 10.2149C12.6582 10.0197 12.3416 10.0197 12.1463 10.2149L11.5342 10.827L10.9219 10.2147Z" fill="#9B9B9B"/>
<path fill-rule="evenodd" clip-rule="evenodd" d="M9.1178 14.3362C6.81767 14.5537 4.4685 14.0984 2.37373 12.9704C1.85635 12.6918 1.58575 12.1045 1.71018 11.5302L1.8138 11.052C2.01004 10.1463 2.81132 9.5 3.73804 9.5H8.40135C8.92006 8.6033 9.88958 8 11 8H12C13.6569 8 15 9.34315 15 11V12C15 13.6569 13.6569 15 12 15H11C10.2872 15 9.6325 14.7514 9.1178 14.3362ZM8.33747 13.3837C6.45369 13.4422 4.55816 13.0109 2.84783 12.09C2.72282 12.0227 2.65744 11.8807 2.6875 11.742L2.79112 11.2637C2.88769 10.818 3.282 10.5 3.73804 10.5H8.04148C8.0142 10.6626 8 10.8296 8 11V12C8 12.4991 8.12187 12.9697 8.33747 13.3837ZM11 9H12C13.1046 9 14 9.89543 14 11V12C14 13.1046 13.1046 14 12 14H11C9.89543 14 9 13.1046 9 12V11C9 9.89543 9.89543 9 11 9Z" fill="#9B9B9B"/>
</svg>
