<svg width="24" height="24" viewBox="0 0 24 24" fill="none" xmlns="http://www.w3.org/2000/svg">
<path fill-rule="evenodd" clip-rule="evenodd" d="M9.47108 3.75C9.2397 3.75 9.00805 3.90426 8.91862 4.17424L6.03612 12.8759C5.8839 13.3355 6.2234 13.7362 6.58858 13.7362H10.3665L9.15975 18.5566C8.98303 19.2626 9.312 19.8222 9.79596 20.0895C10.274 20.3535 10.867 20.3182 11.3079 19.7955L17.6742 12.248C18.4393 11.3408 17.7687 10.0152 16.7399 10.0152H13.8145L15.8999 4.64246C16.0807 4.17669 15.7354 3.75 15.359 3.75H9.47108ZM7.49471 3.70257C7.77731 2.84945 8.56122 2.25 9.47108 2.25H15.359C16.879 2.25 17.8279 3.82064 17.2983 5.18522L16.0057 8.51522H16.7399C19.1617 8.51522 20.3323 11.4232 18.8207 13.2151L12.4544 20.7627C11.4999 21.8943 10.1017 21.9719 9.07084 21.4026C8.04585 20.8366 7.34805 19.6168 7.70466 18.1924L8.44473 15.2362H6.58858C5.11633 15.2362 4.16544 13.753 4.61221 12.4043L7.49471 3.70257Z" fill="#D08E8F"/>
</svg>
