<svg width="28" height="34" viewBox="0 0 28 34" fill="none" xmlns="http://www.w3.org/2000/svg">
<path d="M16.1449 20.9276C15.8675 21.6702 15.5852 22.426 15.7362 23.1812L16.0097 24.5485C16.2634 25.8168 15.2933 27 14 27C12.7067 27 11.7366 25.8168 11.9903 24.5485L12.2638 23.1812C12.4148 22.426 12.1325 21.6702 11.8551 20.9276C11.7719 20.7049 11.6892 20.4835 11.6188 20.2637C11.5416 20.0229 11.5 19.7663 11.5 19.5C11.5 18.1193 12.6193 17 14 17C15.3807 17 16.5 18.1193 16.5 19.5C16.5 19.7663 16.4584 20.0229 16.3812 20.2637C16.3108 20.4835 16.2281 20.7049 16.1449 20.9276Z" fill="#74A0C8"/>
<path fill-rule="evenodd" clip-rule="evenodd" d="M5.25 11.1768C2.33702 12.2064 0.25 14.9845 0.25 18.25V25.75C0.25 29.8921 3.60786 33.25 7.75 33.25H20.25C24.3921 33.25 27.75 29.8921 27.75 25.75V18.25C27.75 14.9845 25.663 12.2064 22.75 11.1768V5.75C22.75 2.98858 20.5114 0.75 17.75 0.75H10.25C7.48858 0.75 5.25 2.98858 5.25 5.75V11.1768ZM17.75 3.25H10.25C8.86929 3.25 7.75 4.36929 7.75 5.75V10.75H20.25V5.75C20.25 4.36929 19.1307 3.25 17.75 3.25ZM7.75 13.25H20.25C23.0114 13.25 25.25 15.4886 25.25 18.25V25.75C25.25 28.5114 23.0114 30.75 20.25 30.75H7.75C4.98858 30.75 2.75 28.5114 2.75 25.75V18.25C2.75 15.4886 4.98858 13.25 7.75 13.25Z" fill="#74A0C8"/>
</svg>
