<svg width="16" height="16" viewBox="0 0 16 16" fill="none" xmlns="http://www.w3.org/2000/svg">
<path d="M12.9 5.7C12.7343 5.47908 12.4209 5.43431 12.2 5.6C11.9791 5.76568 11.9343 6.07908 12.1 6.3L13 7.5H8C7.72386 7.5 7.5 7.72386 7.5 8C7.5 8.27614 7.72386 8.5 8 8.5H13L12.1 9.7C11.9343 9.92091 11.9791 10.2343 12.2 10.4C12.4209 10.5657 12.7343 10.5209 12.9 10.3L14.4 8.3C14.5334 8.12222 14.5334 7.87778 14.4 7.7L12.9 5.7Z" fill="#9B9B9B"/>
<path fill-rule="evenodd" clip-rule="evenodd" d="M1.5 5C1.5 3.067 3.067 1.5 5 1.5H7.5C9.15685 1.5 10.5 2.84315 10.5 4.5C10.5 4.77614 10.2761 5 10 5C9.72386 5 9.5 4.77614 9.5 4.5C9.5 3.39543 8.60457 2.5 7.5 2.5H5C3.61929 2.5 2.5 3.61929 2.5 5V11C2.5 12.3807 3.61929 13.5 5 13.5H7.5C8.60457 13.5 9.5 12.6046 9.5 11.5C9.5 11.2239 9.72386 11 10 11C10.2761 11 10.5 11.2239 10.5 11.5C10.5 13.1569 9.15685 14.5 7.5 14.5H5C3.067 14.5 1.5 12.933 1.5 11V5Z" fill="#9B9B9B"/>
</svg>
