<svg width="64" height="23" viewBox="0 0 64 23" fill="none" xmlns="http://www.w3.org/2000/svg">
<path d="M0.990322 5.40576L3.3655 8.45844L0 9.55205L6.41815 12.4301L7.68248 19.4271L9.51667 16.3643L11.8908 19.417L17.5 3.57294L0.990322 5.40576ZM1.86706 9.65201L3.80487 9.02593L5.59823 11.3273L1.86706 9.65201ZM2.25463 5.94297L14.2372 4.61304L5.56932 7.75257L6.14717 10.9517L2.25463 5.94297ZM6.3285 8.19384L15.2075 4.97657L6.93822 11.5828L6.3285 8.19384ZM15.619 5.50471L10.4612 13.5065L7.3517 12.112L15.619 5.50471ZM8.0212 17.563L7.28695 13.4994L9.0803 15.7998L8.0212 17.563ZM11.6707 18.0457L7.77115 13.0379L10.7063 14.3507L15.7416 6.54684L11.6707 18.0457Z" fill="#9B9B9B"/>
<path d="M28.8119 16.376C27.8339 16.376 27.0059 16.1849 26.3279 15.8027C25.6559 15.4206 25.1129 14.9141 24.6988 14.2832C24.2908 13.6463 23.9938 12.9396 23.8078 12.1632C23.6218 11.3867 23.5288 10.6012 23.5288 9.80657C23.5288 9.05439 23.6218 8.29312 23.8078 7.52275C23.9998 6.74631 24.3028 6.03356 24.7168 5.3845C25.1369 4.72938 25.6829 4.20468 26.3549 3.81039C27.0269 3.41611 27.8459 3.21897 28.8119 3.21897C29.6099 3.21897 30.3029 3.35545 30.8909 3.62842C31.4789 3.89532 31.9649 4.24411 32.3489 4.67479C32.7389 5.0994 33.0359 5.54525 33.2399 6.01233L31.1519 6.99501C30.9479 6.67958 30.7379 6.40965 30.5219 6.18521C30.3059 5.9547 30.0599 5.77879 29.7839 5.65747C29.5139 5.53009 29.1899 5.46639 28.8119 5.46639C28.2719 5.46639 27.8189 5.59984 27.4529 5.86675C27.0869 6.12758 26.7929 6.47334 26.5709 6.90402C26.3489 7.3347 26.1899 7.80481 26.0939 8.31435C25.9979 8.82389 25.9499 9.32129 25.9499 9.80657C25.9499 10.3222 26.0039 10.8347 26.1119 11.3443C26.2199 11.8538 26.3909 12.3179 26.6249 12.7364C26.8589 13.155 27.1559 13.4916 27.5159 13.7464C27.8759 13.9951 28.3079 14.1194 28.8119 14.1194C29.3519 14.1194 29.8049 13.9678 30.1709 13.6645C30.5429 13.3551 30.8729 12.9609 31.1609 12.4816L33.2939 13.2914C33.0239 13.8798 32.6849 14.4076 32.2769 14.8747C31.8689 15.3417 31.3799 15.7087 30.8099 15.9756C30.2399 16.2425 29.5739 16.376 28.8119 16.376ZM35.4709 16.1758V4.10156L37.7209 3.03699V9.5245L40.2769 6.87672H42.9409L40.2769 9.5518L43.6609 16.1758H41.2129L38.6299 11.1714L37.7209 12.0813V16.1758H35.4709ZM46.4639 19.7062L47.8589 16.012L44.4119 6.87672H46.7249L48.7319 12.3179C48.7859 12.4453 48.8369 12.5848 48.8849 12.7364C48.9329 12.8881 48.9779 13.0397 49.0199 13.1914C49.0559 13.0397 49.0979 12.8911 49.1459 12.7455C49.1999 12.5939 49.2539 12.4513 49.3079 12.3179L51.3149 6.87672H53.6279L48.7859 19.7062H46.4639ZM59.1529 16.3942C58.2709 16.3942 57.5089 16.194 56.8669 15.7936C56.2309 15.3933 55.7389 14.8292 55.3909 14.1013C55.0489 13.3673 54.8779 12.5059 54.8779 11.5172C54.8779 10.5163 55.0519 9.65189 55.3999 8.92398C55.7539 8.19606 56.2489 7.638 56.8849 7.24978C57.5269 6.85549 58.2829 6.65835 59.1529 6.65835C59.8969 6.65835 60.5719 6.81606 61.1779 7.13149C61.7839 7.44692 62.2669 7.9322 62.6269 8.58732C62.9869 9.23637 63.1669 10.0644 63.1669 11.0713C63.1669 11.229 63.1609 11.4231 63.1489 11.6536C63.1429 11.8781 63.1279 12.1056 63.1039 12.3361H57.1009C57.1249 12.7607 57.2209 13.1337 57.3889 13.4552C57.5629 13.7707 57.7999 14.0163 58.0999 14.1922C58.3999 14.3682 58.7539 14.4561 59.1619 14.4561C59.5999 14.4561 59.9809 14.3833 60.3049 14.2377C60.6289 14.0861 60.9349 13.8465 61.2229 13.5189L62.5189 14.8747C62.1229 15.3296 61.6459 15.6966 61.0879 15.9756C60.5299 16.2547 59.8849 16.3942 59.1529 16.3942ZM57.1099 10.5618H60.9889C60.9589 10.1554 60.8689 9.80657 60.7189 9.5154C60.5689 9.21817 60.3589 8.9907 60.0889 8.83299C59.8189 8.67527 59.4919 8.59642 59.1079 8.59642C58.5799 8.59642 58.1299 8.7602 57.7579 9.08776C57.3859 9.41532 57.1699 9.90666 57.1099 10.5618Z" fill="#9B9B9B"/>
</svg>
