<svg width="16" height="16" viewBox="0 0 16 16" fill="none" xmlns="http://www.w3.org/2000/svg">
<path d="M5 3C3.61929 3 2.5 4.11929 2.5 5.5V11C2.5 12.3807 3.61929 13.5 5 13.5H10.5C11.8807 13.5 13 12.3807 13 11V8.25C13 7.97386 13.2239 7.75 13.5 7.75C13.7761 7.75 14 7.97386 14 8.25V11C14 12.933 12.433 14.5 10.5 14.5H5C3.067 14.5 1.5 12.933 1.5 11V5.5C1.5 3.567 3.067 2 5 2H7.75C8.02614 2 8.25 2.22386 8.25 2.5C8.25 2.77614 8.02614 3 7.75 3H5Z" fill="#D5D5D5"/>
<path d="M12.4473 4.48576C12.6426 4.29049 12.6426 3.97391 12.4473 3.77865C12.252 3.58339 11.9355 3.58339 11.7402 3.77865L10.7402 4.77865C10.5449 4.97391 10.5449 5.29049 10.7402 5.48576C10.9355 5.68102 11.252 5.68102 11.4473 5.48576L12.4473 4.48576Z" fill="#D5D5D5"/>
<path fill-rule="evenodd" clip-rule="evenodd" d="M13.7084 2.56488C12.9541 1.81059 11.7308 1.81187 10.9781 2.56773L6.66632 6.89762C6.45676 7.10806 6.32216 7.38153 6.28324 7.67595L6.00299 9.79595C5.97465 10.0103 6.15175 10.196 6.36722 10.1778L8.5755 9.99133C8.89522 9.96433 9.19498 9.82472 9.42139 9.59736L13.7113 5.28948C14.4617 4.53585 14.4605 3.31693 13.7084 2.56488ZM8.71281 8.89174L13.0027 4.58385C13.364 4.22099 13.3634 3.63409 13.0013 3.27198C12.6381 2.9088 12.0491 2.90942 11.6867 3.27336L7.3749 7.60324C7.32004 7.65833 7.28481 7.72993 7.27462 7.807L7.10208 9.11218L8.49136 8.99488C8.57506 8.98781 8.65353 8.95126 8.71281 8.89174Z" fill="#D5D5D5"/>
</svg>
