<svg width="16" height="17" viewBox="0 0 16 17" fill="none" xmlns="http://www.w3.org/2000/svg">
<path fill-rule="evenodd" clip-rule="evenodd" d="M8 1.5C6.067 1.5 4.5 3.067 4.5 5V5.5C4.5 7.433 6.067 9 8 9C9.933 9 11.5 7.433 11.5 5.5V5C11.5 3.067 9.933 1.5 8 1.5ZM10.5 5.5V5C10.5 3.61929 9.38071 2.5 8 2.5C6.61929 2.5 5.5 3.61929 5.5 5V5.5C5.5 6.88071 6.61929 8 8 8C9.38071 8 10.5 6.88071 10.5 5.5Z" fill="#74A0C8"/>
<path d="M12.0342 10.6682C12.0342 10.3921 11.8103 10.1682 11.5342 10.1682C11.258 10.1682 11.0342 10.3921 11.0342 10.6682V11.5342H10.1682C9.89207 11.5342 9.66822 11.758 9.66822 12.0342C9.66822 12.3103 9.89207 12.5342 10.1682 12.5342H11.0342V13.3998C11.0342 13.6759 11.258 13.8998 11.5342 13.8998C11.8103 13.8998 12.0342 13.6759 12.0342 13.3998V12.5342H12.8998C13.1759 12.5342 13.3998 12.3103 13.3998 12.0342C13.3998 11.758 13.1759 11.5342 12.8998 11.5342H12.0342V10.6682Z" fill="#74A0C8"/>
<path fill-rule="evenodd" clip-rule="evenodd" d="M9.1178 14.8362C6.81767 15.0537 4.4685 14.5984 2.37373 13.4704C1.85635 13.1918 1.58575 12.6045 1.71018 12.0302L1.8138 11.552C2.01004 10.6463 2.81132 10 3.73804 10H8.40135C8.92006 9.1033 9.88958 8.5 11 8.5H12C13.6569 8.5 15 9.84315 15 11.5V12.5C15 14.1569 13.6569 15.5 12 15.5H11C10.2872 15.5 9.6325 15.2514 9.1178 14.8362ZM8.33747 13.8837C6.45369 13.9422 4.55816 13.5109 2.84783 12.59C2.72282 12.5227 2.65744 12.3807 2.6875 12.242L2.79112 11.7637C2.88769 11.318 3.282 11 3.73804 11H8.04148C8.0142 11.1626 8 11.3296 8 11.5V12.5C8 12.9991 8.12187 13.4697 8.33747 13.8837ZM11 9.5H12C13.1046 9.5 14 10.3954 14 11.5V12.5C14 13.6046 13.1046 14.5 12 14.5H11C9.89543 14.5 9 13.6046 9 12.5V11.5C9 10.3954 9.89543 9.5 11 9.5Z" fill="#74A0C8"/>
</svg>
