<svg width="16" height="16" viewBox="0 0 16 16" fill="none" xmlns="http://www.w3.org/2000/svg">
<path fill-rule="evenodd" clip-rule="evenodd" d="M4.5 4.5C4.5 2.567 6.067 1 8 1C9.933 1 11.5 2.567 11.5 4.5V5C11.5 6.933 9.933 8.5 8 8.5C6.067 8.5 4.5 6.933 4.5 5V4.5ZM10.5 4.5V5C10.5 6.38071 9.38071 7.5 8 7.5C6.61929 7.5 5.5 6.38071 5.5 5V4.5C5.5 3.11929 6.61929 2 8 2C9.38071 2 10.5 3.11929 10.5 4.5Z" fill="#D5D5D5"/>
<path fill-rule="evenodd" clip-rule="evenodd" d="M14.2899 11.5302L14.1863 11.052C13.9901 10.1463 13.1888 9.5 12.2621 9.5H3.73804C2.81132 9.5 2.01004 10.1463 1.8138 11.052L1.71018 11.5302C1.58575 12.1045 1.85635 12.6918 2.37373 12.9704C5.8862 14.8618 10.1139 14.8618 13.6264 12.9704C14.1438 12.6918 14.4144 12.1045 14.2899 11.5302ZM3.73804 10.5H12.2621C12.7181 10.5 13.1124 10.818 13.209 11.2637L13.3126 11.742C13.3427 11.8807 13.2773 12.0227 13.1523 12.09C9.9358 13.8219 6.06432 13.8219 2.84783 12.09C2.72282 12.0227 2.65744 11.8807 2.6875 11.742L2.79112 11.2637C2.88769 10.818 3.282 10.5 3.73804 10.5Z" fill="#D5D5D5"/>
</svg>
