<svg width="16" height="16" viewBox="0 0 16 16" fill="none" xmlns="http://www.w3.org/2000/svg">
<path fill-rule="evenodd" clip-rule="evenodd" d="M7.5 3C7.5 2.44772 7.05228 2 6.5 2H5C4.44772 2 4 2.44772 4 3L4 11C4 11.5523 4.44771 12 5 12H6.5C7.05228 12 7.5 11.5523 7.5 11L7.5 3ZM6.5 11L6.5 3L5 3L5 11H6.5Z" fill="#74A0C8"/>
<path d="M2.5 13.5C2.5 13.2239 2.72386 13 3 13H13C13.2761 13 13.5 13.2239 13.5 13.5C13.5 13.7761 13.2761 14 13 14H3C2.72386 14 2.5 13.7761 2.5 13.5Z" fill="#74A0C8"/>
<path fill-rule="evenodd" clip-rule="evenodd" d="M11 6C11.5523 6 12 6.44772 12 7V11C12 11.5523 11.5523 12 11 12H9.5C8.94771 12 8.5 11.5523 8.5 11V7C8.5 6.44772 8.94772 6 9.5 6H11ZM11 7V11H9.5V7H11Z" fill="#74A0C8"/>
</svg>
