<svg width="16" height="16" viewBox="0 0 16 16" fill="none" xmlns="http://www.w3.org/2000/svg">
<path fill-rule="evenodd" clip-rule="evenodd" d="M14.5 7.5C14.5 10.8137 11.8137 13.5 8.5 13.5C7.1492 13.5 5.90266 13.0536 4.89984 12.3003C4.88587 12.3189 4.87044 12.3367 4.85355 12.3536L3.35355 13.8536C3.15829 14.0488 2.84171 14.0488 2.64645 13.8536C2.45118 13.6583 2.45118 13.3417 2.64645 13.1464L4.14645 11.6464C4.14933 11.6436 4.15223 11.6407 4.15516 11.6379C3.12959 10.5614 2.5 9.10423 2.5 7.5C2.5 4.18629 5.18629 1.5 8.5 1.5C11.8137 1.5 14.5 4.18629 14.5 7.5ZM13.5 7.5C13.5 10.2614 11.2614 12.5 8.5 12.5C5.73858 12.5 3.5 10.2614 3.5 7.5C3.5 4.73858 5.73858 2.5 8.5 2.5C11.2614 2.5 13.5 4.73858 13.5 7.5Z" fill="#9B9B9B"/>
</svg>
