<svg width="16" height="16" viewBox="0 0 16 16" fill="none" xmlns="http://www.w3.org/2000/svg">
<path fill-rule="evenodd" clip-rule="evenodd" d="M7.49385 2.5C7.37639 3.98498 5.6019 4.71997 4.46882 3.753L3.75302 4.4688C4.72001 5.6019 3.98499 7.3764 2.5 7.49385V8.50615C3.98498 8.62361 4.71997 10.3981 3.753 11.5312L4.4688 12.247C5.6019 11.28 7.3764 12.015 7.49385 13.5H8.50615C8.6236 12.015 10.3981 11.28 11.5312 12.247L12.247 11.5312C11.28 10.3981 12.015 8.62361 13.5 8.50615V7.49385C12.015 7.3764 11.28 5.60191 12.247 4.46881L11.5312 3.75301C10.3981 4.71998 8.62361 3.98497 8.50615 2.5H7.49385ZM8.65686 1.5C9.12251 1.5 9.5 1.87749 9.5 2.34314C9.5 3.0943 10.4082 3.47048 10.9393 2.93933C11.2686 2.61006 11.8024 2.61006 12.1317 2.93933L13.0606 3.86826C13.3899 4.19753 13.3899 4.73139 13.0606 5.06066C12.5295 5.59181 12.9057 6.5 13.6568 6.5C14.1225 6.5 14.5 6.87749 14.5 7.34315V8.65686C14.5 9.12251 14.1225 9.5 13.6569 9.5C12.9057 9.5 12.5295 10.4082 13.0607 10.9393C13.3899 11.2686 13.3899 11.8024 13.0607 12.1317L12.1317 13.0606C11.8025 13.3899 11.2686 13.3899 10.9393 13.0606C10.4082 12.5295 9.5 12.9057 9.5 13.6568C9.5 14.1225 9.12251 14.5 8.65685 14.5H7.34315C6.87749 14.5 6.5 14.1225 6.5 13.6568C6.5 12.9057 5.59181 12.5295 5.06065 13.0607C4.73138 13.3899 4.19753 13.3899 3.86826 13.0607L2.93933 12.1317C2.61006 11.8025 2.61006 11.2686 2.93933 10.9393C3.47048 10.4082 3.0943 9.5 2.34314 9.5C1.87749 9.5 1.5 9.12251 1.5 8.65686V7.34315C1.5 6.87749 1.87749 6.5 2.34315 6.5C3.09432 6.5 3.4705 5.59181 2.93935 5.06065C2.61008 4.73138 2.61008 4.19753 2.93935 3.86826L3.86828 2.93933C4.19755 2.61006 4.7314 2.61006 5.06067 2.93933C5.59181 3.47048 6.5 3.0943 6.5 2.34314C6.5 1.87749 6.87749 1.5 7.34314 1.5H8.65686Z" fill="#9B9B9B"/>
<path fill-rule="evenodd" clip-rule="evenodd" d="M8 9C8.55228 9 9 8.55228 9 8C9 7.44772 8.55228 7 8 7C7.44772 7 7 7.44772 7 8C7 8.55228 7.44772 9 8 9ZM8 10C9.10457 10 10 9.10457 10 8C10 6.89543 9.10457 6 8 6C6.89543 6 6 6.89543 6 8C6 9.10457 6.89543 10 8 10Z" fill="#9B9B9B"/>
</svg>
