<svg width="16" height="16" viewBox="0 0 16 16" fill="none" xmlns="http://www.w3.org/2000/svg">
<path d="M12.8536 3.14645C12.6583 2.95118 12.3417 2.95118 12.1464 3.14645C11.9512 3.34171 11.9512 3.65829 12.1464 3.85355L12.7996 4.50673L10.9618 4.50002C10.4205 4.4979 9.88736 4.71774 9.54013 5.12578L5.19824 10.2262C5.06285 10.3853 4.8226 10.5007 4.54155 10.5L2.00183 10.4907C1.72569 10.4897 1.50101 10.7127 1.5 10.9889C1.49899 11.265 1.72203 11.4897 1.99817 11.4907L4.53889 11.5C5.07926 11.5014 5.61231 11.2827 5.95987 10.8742L10.3018 5.7738C10.4375 5.61427 10.6777 5.49889 10.958 5.50001L12.7862 5.50669L12.1464 6.14645C11.9512 6.34171 11.9512 6.65829 12.1464 6.85355C12.3417 7.04882 12.6583 7.04882 12.8536 6.85355L14.3536 5.35355C14.5488 5.15829 14.5488 4.84171 14.3536 4.64645L12.8536 3.14645Z" fill="#9B9B9B"/>
<path d="M12.8536 9.14645C12.6583 8.95118 12.3417 8.95118 12.1464 9.14645C11.9512 9.34171 11.9512 9.65829 12.1464 9.85355L12.7868 10.4939L11.0073 10.5C10.7228 10.5007 10.487 10.3908 10.3597 10.2509L9.36974 9.16341C9.18384 8.95921 8.86761 8.94437 8.66341 9.13027C8.45921 9.31616 8.44437 9.6324 8.63027 9.8366L9.62024 10.924C9.96659 11.3047 10.4894 11.5013 11.0105 11.5L12.799 11.4939L12.1464 12.1464C11.9512 12.3417 11.9512 12.6583 12.1464 12.8536C12.3417 13.0488 12.6583 13.0488 12.8536 12.8536L14.3536 11.3536C14.5488 11.1583 14.5488 10.8417 14.3536 10.6464L12.8536 9.14645Z" fill="#9B9B9B"/>
<path fill-rule="evenodd" clip-rule="evenodd" d="M5.87988 5.07609L6.86974 6.16341C7.05563 6.3676 7.04079 6.68384 6.83659 6.86974C6.6324 7.05563 6.31616 7.04079 6.13026 6.83659L5.14029 5.74915C5.01298 5.60921 4.77723 5.49935 4.49268 5.5L2.00171 5.50851C1.72557 5.50946 1.50095 5.28637 1.5 5.01022C1.49906 4.73408 1.72215 4.50946 1.99829 4.50852L4.48952 4.50001C5.01058 4.49871 5.53354 4.69546 5.87988 5.07609Z" fill="#9B9B9B"/>
</svg>
