<svg width="16" height="16" viewBox="0 0 16 16" fill="none" xmlns="http://www.w3.org/2000/svg">
<path fill-rule="evenodd" clip-rule="evenodd" d="M7.23222 8.85316C7.1113 8.59571 6.9042 8.38861 6.64674 8.2677L4.70117 7.35395C3.76628 6.91487 3.76628 5.58513 4.70117 5.14605L6.64674 4.2323C6.9042 4.11139 7.1113 3.90429 7.23222 3.64684L8.14605 1.70115C8.58513 0.766281 9.91487 0.766283 10.354 1.70116L11.2678 3.64684C11.3887 3.90429 11.5958 4.11139 11.8533 4.2323L13.7988 5.14605C14.7337 5.58513 14.7337 6.91487 13.7988 7.35395L11.8533 8.2677C11.5958 8.38861 11.3887 8.59571 11.2678 8.85316L10.354 10.7988C9.91487 11.7337 8.58513 11.7337 8.14605 10.7988L7.23222 8.85316ZM7.07185 7.36255L5.12627 6.4488C4.95791 6.36973 4.95791 6.13027 5.12627 6.0512L7.07185 5.13745C7.54039 4.9174 7.91729 4.5405 8.13735 4.07196L9.05119 2.12627C9.13026 1.95791 9.36974 1.95791 9.44882 2.12627L10.3626 4.07196C10.5827 4.5405 10.9596 4.9174 11.4282 5.13745L13.3737 6.0512C13.5421 6.13027 13.5421 6.36973 13.3737 6.4488L11.4282 7.36255C10.9596 7.5826 10.5827 7.9595 10.3626 8.42804L9.44881 10.3737C9.36974 10.5421 9.13026 10.5421 9.05118 10.3737L8.13735 8.42804C7.91729 7.9595 7.54039 7.5826 7.07185 7.36255Z" fill="#D5D5D5"/>
<path fill-rule="evenodd" clip-rule="evenodd" d="M3.53915 13.7396C3.48157 13.617 3.38295 13.5184 3.26035 13.4608L2.33389 13.0257C1.8887 12.8166 1.8887 12.1834 2.33389 11.9743L3.26035 11.5392C3.38295 11.4816 3.48157 11.383 3.53915 11.2604L3.97431 10.3339C4.18339 9.88871 4.81661 9.88871 5.02569 10.3339L5.46085 11.2604C5.51843 11.383 5.61705 11.4816 5.73965 11.5392L6.66611 11.9743C7.1113 12.1834 7.1113 12.8166 6.66611 13.0257L5.73965 13.4608C5.61705 13.5184 5.51843 13.617 5.46085 13.7396L5.02569 14.6661C4.81661 15.1113 4.18339 15.1113 3.97431 14.6661L3.53915 13.7396ZM3.68546 12.5557L3.56694 12.5L3.68546 12.4443C4.01915 12.2876 4.28757 12.0192 4.44429 11.6855L4.5 11.5669L4.55571 11.6855C4.71243 12.0192 4.98085 12.2876 5.31454 12.4443L5.43306 12.5L5.31454 12.5557C4.98086 12.7124 4.71243 12.9808 4.55571 13.3145L4.5 13.4331L4.44429 13.3145C4.28757 12.9808 4.01915 12.7124 3.68546 12.5557Z" fill="#D5D5D5"/>
</svg>
