<svg width="16" height="16" viewBox="0 0 16 16" fill="none" xmlns="http://www.w3.org/2000/svg">
<path d="M4.35355 12.3536C4.54882 12.1583 4.54882 11.8417 4.35355 11.6464C4.15829 11.4512 3.84171 11.4512 3.64645 11.6464L3.14645 12.1464C2.95118 12.3417 2.95118 12.6583 3.14645 12.8536C3.34171 13.0488 3.65829 13.0488 3.85355 12.8536L4.35355 12.3536Z" fill="#9B9B9B"/>
<path fill-rule="evenodd" clip-rule="evenodd" d="M10.75 9C10.278 9 9.82636 8.9128 9.41032 8.75362L5.99844 12.1655C5.99948 12.1935 6 12.2217 6 12.25C6 13.4926 4.99264 14.5 3.75 14.5C2.50736 14.5 1.5 13.4926 1.5 12.25C1.5 11.0073 2.50736 9.99995 3.75 9.99995C3.80561 9.99995 3.86076 10.002 3.91536 10.0059L7.27042 6.65088C7.096 6.21807 7 5.74525 7 5.25C7 3.17893 8.67893 1.5 10.75 1.5C10.9531 1.5 11.1524 1.51614 11.3467 1.54721C11.7043 1.60439 11.8009 2.03539 11.5448 2.2915L11.0127 2.82363C10.9128 2.9235 10.8598 3.06096 10.8669 3.20202L10.9335 4.54167C10.9463 4.79828 11.1514 5.00344 11.408 5.01621L12.7477 5.08286C12.8888 5.08988 13.0262 5.0369 13.1261 4.93703L13.6923 4.37085C13.9452 4.11791 14.3712 4.20822 14.4366 4.55991C14.4782 4.78359 14.5 5.01426 14.5 5.25C14.5 7.32107 12.8211 9 10.75 9ZM9.76766 7.81964L9.16186 7.58786L4.98305 11.7667L4.99912 12.2024C4.99971 12.2181 5 12.234 5 12.25C5 12.9403 4.44036 13.5 3.75 13.5C3.05964 13.5 2.5 12.9403 2.5 12.25C2.5 11.5596 3.05964 11 3.75 11C3.78141 11 3.8124 11.0011 3.84292 11.0033L4.29907 11.0364L8.44509 6.89042L8.19794 6.27711C8.07059 5.96109 8 5.61502 8 5.25C8 3.99937 8.83484 2.94373 9.97763 2.60995C9.89546 2.81111 9.85706 3.02993 9.86809 3.25171L9.93474 4.59136C9.97304 5.36118 10.5885 5.97667 11.3584 6.01497L12.698 6.08162C12.9469 6.09401 13.192 6.04414 13.4127 5.94001C13.1066 7.12483 12.0305 8 10.75 8C10.402 8 10.0714 7.93586 9.76766 7.81964Z" fill="#9B9B9B"/>
</svg>
