<svg width="70" height="63" viewBox="0 0 70 63" fill="none" xmlns="http://www.w3.org/2000/svg">
<path d="M3.96129 7.2516L13.462 19.3296L0 23.6566L25.6726 35.0434L30.7299 62.7273L38.0667 50.6093L47.5633 62.6873L70 0L3.96129 7.2516ZM7.46826 24.0521L15.2195 21.5749L22.3929 30.6804L7.46826 24.0521ZM9.01851 9.37713L56.9486 4.11523L22.2773 16.5368L24.5887 29.1942L9.01851 9.37713ZM25.314 18.2828L60.8301 5.55356L27.7529 31.6912L25.314 18.2828ZM62.476 7.64314L41.8446 39.3025L29.4068 33.7848L62.476 7.64314ZM32.0848 55.3519L29.1478 39.2745L36.3212 48.3759L32.0848 55.3519ZM46.6827 57.2616L31.0846 37.4486L42.825 42.6426L62.9662 11.7663L46.6827 57.2616Z" fill="white"/>
</svg>
